<?xml version="1.0" standalone="no"?>
<!DOCTYPE svg PUBLIC "-//W3C//DTD SVG 20010904//EN"
 "http://www.w3.org/TR/2001/REC-SVG-20010904/DTD/svg10.dtd">
<svg version="1.0" xmlns="http://www.w3.org/2000/svg"
 width="493.000000pt" height="493.000000pt" viewBox="0 0 493.000000 493.000000"
 preserveAspectRatio="xMidYMid meet">
<metadata>
Created by potrace 1.11, written by Peter Selinger 2001-2013
</metadata>
<g transform="translate(0.000000,493.000000) scale(0.100000,-0.100000)"
fill="#000000" stroke="none">
<path d="M444 2488 l1 -673 166 -3 166 -2 1 217 c0 120 1 237 1 259 l1 41 223
1 c122 0 232 1 244 1 21 1 22 4 22 131 0 94 -3 130 -12 131 -7 0 -117 1 -244
1 -162 1 -233 4 -234 12 0 6 -1 74 -1 151 l-1 140 256 0 c223 0 257 2 257 15
1 25 1 204 1 228 l-1 22 -423 0 -424 0 1 -672z"/>
<path d="M1482 3028 l3 -133 55 0 c30 0 60 -3 65 -7 6 -4 10 -196 10 -542 l0
-536 291 0 292 0 -2 133 -1 132 -121 3 -122 3 0 517 c0 284 -1 527 -1 540 l-1
22 -235 0 -236 0 3 -132z"/>
<path d="M2430 3027 l0 -132 253 0 252 0 2 -135 1 -135 -241 0 -242 0 -3 -132
-3 -133 244 0 244 0 0 -140 0 -140 -257 0 -257 0 0 -135 0 -135 423 0 424 0 0
675 0 675 -420 0 -420 0 0 -133z"/>
<path d="M3410 3155 c0 -3 21 -37 47 -77 26 -40 54 -85 63 -99 8 -14 43 -70
78 -125 35 -54 101 -159 147 -232 l85 -133 -103 -160 c-56 -87 -109 -170 -117
-184 -8 -14 -56 -89 -106 -167 -50 -79 -94 -149 -98 -155 -6 -10 30 -13 162
-13 l169 0 129 214 128 215 128 -215 129 -214 170 0 c159 0 169 1 160 18 -6 9
-39 61 -73 115 -35 53 -127 198 -206 322 l-144 224 39 61 c21 33 51 82 68 108
16 26 88 139 160 252 73 113 137 215 144 228 l12 22 -168 0 -168 0 -123 -205
c-68 -113 -127 -205 -131 -205 -5 0 -11 8 -15 18 -5 16 -11 27 -47 82 -9 14
-30 48 -45 75 -16 28 -54 92 -84 143 l-55 92 -167 0 c-93 0 -168 -2 -168 -5z"/>
</g>
</svg>
